<svg xmlns="http://www.w3.org/2000/svg" aria-hidden="true" role="img" width="1em" height="1em" viewBox="0 0 24 24" data-icon="lucide:brain-circuit" class="iconify text-[22px] text-blue-400 iconify--lucide"><g fill="none" stroke="currentColor" stroke-linecap="round" stroke-linejoin="round" stroke-width="2"><path d="M12 5a3 3 0 1 0-5.997.125a4 4 0 0 0-2.526 5.77a4 4 0 0 0 .556 6.588A4 4 0 1 0 12 18Z"></path><path d="M9 13a4.5 4.5 0 0 0 3-4M6.003 5.125A3 3 0 0 0 6.401 6.5m-2.924 4.396a4 4 0 0 1 .585-.396M6 18a4 4 0 0 1-1.967-.516M12 13h4m-4 5h6a2 2 0 0 1 2 2v1M12 8h8m-4 0V5a2 2 0 0 1 2-2"></path><circle cx="16" cy="13" r=".5"></circle><circle cx="18" cy="3" r=".5"></circle><circle cx="20" cy="21" r=".5"></circle><circle cx="20" cy="8" r=".5"></circle></g></svg>